<svg id="Layer_1" enable-background="new 0 0 128 128" height="512" viewBox="0 0 128 128" width="512" xmlns="http://www.w3.org/2000/svg"><g><path d="m66.5 17.3h-12.4c-6.5 0-11.9 5.3-11.9 11.9v4.3h-15.5c-1 0-1.8.8-1.8 1.8v.1l2.5 51.8c.3 7.1 6.2 12.7 13.3 12.7h28.7c3.8 8.9 14.1 13 23 9.2s13-14.1 9.2-23c-1.6-3.7-4.4-6.8-8-8.6l2-42.1c0-1-.8-1.8-1.7-1.8h-15.6v-4.3c0-6.7-5.3-12-11.8-12zm-20.7 11.8c0-4.6 3.7-8.4 8.4-8.4h12.4c4.6 0 8.4 3.7 8.4 8.4v4.3h-29.2zm52.6 69.4c-2.2 5.1-7.3 8.4-12.8 8.4-6 0-11.3-3.8-13.3-9.4-.5-1.5-.8-3-.8-4.6 0-7.7 6.3-14 14-14 10-.1 16.9 10.2 12.9 19.6zm-6.3-61.6-1.9 39.1c-9.3-2.6-18.9 2.8-21.5 12.1-.7 2.7-.9 5.5-.3 8.2h-27.6c-5.2 0-9.6-4.1-9.8-9.3l-2.4-50h13.7v5.9c0 1 .8 1.8 1.8 1.8s1.8-.8 1.8-1.8v-5.9h29.1v5.9c0 1 .8 1.8 1.8 1.8s1.8-.8 1.8-1.8v-5.9h13.5z"/><path d="m85.5 83.6c-1 0-1.8.8-1.8 1.8v5.7h-5.7c-1 0-1.8.8-1.8 1.8s.8 1.8 1.8 1.8h5.7v5.7c0 1 .8 1.8 1.8 1.8s1.8-.8 1.8-1.8v-5.7h5.7c1 0 1.8-.8 1.8-1.8s-.8-1.8-1.8-1.8h-5.7v-5.7c0-1-.8-1.8-1.8-1.8z"/></g></svg>