<svg height="512pt" viewBox="0 0 512 511" width="512pt" xmlns="http://www.w3.org/2000/svg"><path d="m324.945312 145.53125c0 11.042969-8.953124 19.996094-19.996093 19.996094h-68.988281c-11.046876 0-20-8.953125-20-19.996094s8.953124-19.996094 20-19.996094h68.988281c11.042969 0 19.996093 8.953125 19.996093 19.996094zm-139.460937-53.398438c-9.03125-6.359374-21.503906-4.195312-27.863281 4.835938l-28.542969 40.527344-14.886719-15.035156c-7.769531-7.84375-20.429687-7.910157-28.277344-.140626-7.847656 7.769532-7.910156 20.433594-.140624 28.28125l22.597656 22.820313c.101562.101563.199218.203125.304687.300781 5.804688 5.617188 13.578125 8.742188 21.585938 8.742188.679687 0 1.363281-.019532 2.042969-.066406 8.730468-.578126 16.859374-4.863282 22.308593-11.75.226563-.292969.449219-.585938.660157-.890626l35.046874-49.761718c6.359376-9.03125 4.191407-21.503906-4.835937-27.863282zm119.464844 154.4375h-68.988281c-11.046876 0-20 8.949219-20 19.996094 0 11.042969 8.953124 19.996094 20 19.996094h68.988281c11.042969 0 19.996093-8.953125 19.996093-19.996094 0-11.046875-8.953124-19.996094-19.996093-19.996094zm-119.464844-33.402343c-9.03125-6.359375-21.503906-4.195313-27.863281 4.835937l-28.542969 40.527344-14.886719-15.035156c-7.769531-7.847656-20.429687-7.910156-28.277344-.140625-7.847656 7.769531-7.910156 20.433593-.140624 28.28125l22.597656 22.820312c.101562.101563.199218.203125.304687.300781 5.804688 5.617188 13.578125 8.742188 21.585938 8.742188.679687 0 1.363281-.019531 2.042969-.066406 8.730468-.578125 16.859374-4.863282 22.308593-11.75.226563-.292969.449219-.585938.660157-.890625l35.046874-49.761719c6.359376-9.03125 4.191407-21.507812-4.835937-27.863281zm326.515625-139.679688v63.988281c0 44.105469-35.882812 79.984376-79.984375 79.984376h-26.085937v113.980468c0 11.046875-8.953126 20-19.996094 20-11.042969 0-19.996094-8.953125-19.996094-20v-257.953125c0-11.871093 2.867188-23.078125 7.914062-32.996093h-293.867187c-22.050781 0-39.992187 17.941406-39.992187 39.992187v351.941406c0 22.050781 17.941406 39.992188 39.992187 39.992188h245.960937c22.050782 0 39.992188-17.941407 39.992188-39.992188 0-11.042969 8.953125-19.996093 19.996094-19.996093 11.042968 0 19.996094 8.953124 19.996094 19.996093 0 44.105469-35.882813 79.984375-79.984376 79.984375h-245.960937c-44.101563 0-79.984375-35.878906-79.984375-79.984375v-351.941406c0-44.101563 35.882812-79.984375 79.984375-79.984375h359.941406c.308594 0 .613281.03125.917969.046875 39.402344.976563 71.15625 33.308594 71.15625 72.941406zm-39.992188 0c0-18.195312-14.800781-32.996093-32.996093-32.996093h-.085938c-18.195312 0-32.996093 14.800781-32.996093 32.996093v103.980469h26.085937c22.050781 0 39.992187-17.941406 39.992187-39.992188zm-167.058593 293.058594h-68.988281c-11.046876 0-20 8.953125-20 19.996094 0 11.046875 8.953124 20 20 20h68.988281c11.042969 0 19.996093-8.953125 19.996093-20 0-11.042969-8.953124-19.996094-19.996093-19.996094zm-119.464844-33.398437c-9.03125-6.359376-21.503906-4.195313-27.863281 4.832031l-28.542969 40.53125-14.886719-15.035157c-7.769531-7.847656-20.429687-7.910156-28.277344-.140624-7.847656 7.769531-7.910156 20.433593-.140624 28.28125l22.597656 22.820312c.101562.101562.199218.199219.304687.300781 5.804688 5.617188 13.578125 8.742188 21.585938 8.742188.679687 0 1.363281-.019531 2.042969-.066407 8.730468-.582031 16.859374-4.863281 22.308593-11.753906.226563-.289062.449219-.585937.660157-.886718l35.046874-49.765626c6.359376-9.027343 4.191407-21.503906-4.835937-27.859374zm0 0"/></svg>